<svg width="68" height="42" viewBox="0 0 68 42" fill="none" xmlns="http://www.w3.org/2000/svg">
<path d="M14.3177 41.8791V32.3575H18.0744C18.7934 32.3575 19.4071 32.4861 19.9155 32.7433C20.4269 32.9975 20.8159 33.3586 21.0824 33.8266C21.3521 34.2915 21.4869 34.8386 21.4869 35.4678C21.4869 36.1001 21.3505 36.6441 21.0778 37.0997C20.805 37.5522 20.4098 37.8994 19.8922 38.1411C19.3777 38.3829 18.7547 38.5038 18.0232 38.5038H15.508V36.8858H17.6978C18.0821 36.8858 18.4014 36.8331 18.6555 36.7278C18.9097 36.6224 19.0987 36.4643 19.2227 36.2535C19.3498 36.0428 19.4133 35.7809 19.4133 35.4678C19.4133 35.1517 19.3498 34.8851 19.2227 34.6681C19.0987 34.4512 18.9081 34.2869 18.6509 34.1753C18.3967 34.0606 18.0759 34.0033 17.6885 34.0033H16.3309V41.8791H14.3177ZM19.4598 37.546L21.8263 41.8791H19.604L17.2886 37.546H19.4598Z" fill="#6E727A"/>
<path d="M6.03433 41.8791H3.87708L7.1641 32.3575H9.75839L13.0408 41.8791H10.8835L8.49844 34.5333H8.42405L6.03433 41.8791ZM5.8995 38.1365H10.9951V39.7079H5.8995V38.1365Z" fill="#6E727A"/>
<path d="M1.48313 42C1.17628 42 0.912823 41.8915 0.692758 41.6745C0.475792 41.4545 0.36731 41.191 0.36731 40.8842C0.36731 40.5804 0.475792 40.3201 0.692758 40.1031C0.912823 39.8861 1.17628 39.7776 1.48313 39.7776C1.78069 39.7776 2.04104 39.8861 2.26421 40.1031C2.48737 40.3201 2.59895 40.5804 2.59895 40.8842C2.59895 41.0887 2.54626 41.2763 2.44088 41.4467C2.3386 41.6141 2.20377 41.7489 2.03639 41.8512C1.86902 41.9504 1.6846 42 1.48313 42Z" fill="#6E727A"/>
<path d="M41.1478 18.9822C41.1106 18.6072 40.951 18.3158 40.6689 18.1082C40.3869 17.9005 40.0041 17.7967 39.5205 17.7967C39.192 17.7967 38.9146 17.8432 38.6883 17.9362C38.4621 18.026 38.2885 18.1516 38.1676 18.3127C38.0498 18.4739 37.9909 18.6568 37.9909 18.8614C37.9847 19.0318 38.0204 19.1806 38.0979 19.3077C38.1785 19.4348 38.2885 19.5448 38.428 19.6378C38.5674 19.7277 38.7286 19.8067 38.9115 19.8749C39.0944 19.94 39.2896 19.9958 39.4973 20.0423L40.3528 20.2468C40.7681 20.3398 41.1493 20.4638 41.4965 20.6188C41.8436 20.7738 42.1443 20.9644 42.3984 21.1906C42.6526 21.4169 42.8494 21.6835 42.9889 21.9903C43.1315 22.2972 43.2043 22.649 43.2074 23.0457C43.2043 23.6284 43.0555 24.1336 42.7611 24.5614C42.4697 24.986 42.0482 25.3161 41.4965 25.5516C40.9479 25.7841 40.2861 25.9003 39.5112 25.9003C38.7426 25.9003 38.0731 25.7826 37.5028 25.547C36.9356 25.3114 36.4923 24.9627 36.1731 24.5009C35.8569 24.036 35.6911 23.461 35.6756 22.776H37.6236C37.6453 23.0953 37.7368 23.3618 37.8979 23.5757C38.0622 23.7865 38.2807 23.9461 38.5535 24.0546C38.8293 24.16 39.1408 24.2127 39.488 24.2127C39.8289 24.2127 40.1249 24.1631 40.376 24.0639C40.6302 23.9647 40.827 23.8268 40.9665 23.6501C41.1059 23.4734 41.1757 23.2704 41.1757 23.041C41.1757 22.8272 41.1121 22.6474 40.9851 22.5017C40.8611 22.3561 40.6782 22.2321 40.4364 22.1298C40.1978 22.0275 39.9049 21.9345 39.5577 21.8508L38.5209 21.5905C37.7182 21.3952 37.0843 21.0899 36.6194 20.6746C36.1545 20.2592 35.9236 19.6998 35.9267 18.9962C35.9236 18.4197 36.077 17.916 36.3869 17.4852C36.7 17.0543 37.1293 16.7181 37.6748 16.4763C38.2203 16.2345 38.8402 16.1136 39.5345 16.1136C40.2412 16.1136 40.858 16.2345 41.3849 16.4763C41.9149 16.7181 42.3271 17.0543 42.6216 17.4852C42.916 17.916 43.0679 18.415 43.0772 18.9822H41.1478Z" fill="white"/>
<path d="M27.9164 25.7655H25.7592L29.0462 16.2438H31.6405L34.9229 25.7655H32.7656L30.3805 18.4197H30.3061L27.9164 25.7655ZM27.7816 22.0229H32.8772V23.5943H27.7816V22.0229Z" fill="white"/>
<path d="M22.9479 18.9822C22.9107 18.6072 22.7511 18.3158 22.469 18.1082C22.187 17.9005 21.8042 17.7967 21.3206 17.7967C20.9921 17.7967 20.7147 17.8432 20.4884 17.9362C20.2622 18.026 20.0886 18.1516 19.9677 18.3127C19.8499 18.4739 19.791 18.6568 19.791 18.8614C19.7848 19.0318 19.8205 19.1806 19.898 19.3077C19.9786 19.4348 20.0886 19.5448 20.2281 19.6378C20.3675 19.7277 20.5287 19.8067 20.7116 19.8749C20.8945 19.94 21.0897 19.9958 21.2974 20.0423L22.1529 20.2468C22.5682 20.3398 22.9494 20.4638 23.2966 20.6188C23.6437 20.7738 23.9444 20.9644 24.1985 21.1906C24.4527 21.4169 24.6495 21.6835 24.789 21.9903C24.9316 22.2972 25.0044 22.649 25.0075 23.0457C25.0044 23.6284 24.8556 24.1336 24.5612 24.5614C24.2698 24.986 23.8483 25.3161 23.2966 25.5516C22.748 25.7841 22.0862 25.9003 21.3113 25.9003C20.5427 25.9003 19.8732 25.7826 19.3029 25.547C18.7357 25.3114 18.2924 24.9627 17.9732 24.5009C17.657 24.036 17.4912 23.461 17.4757 22.776H19.4237C19.4454 23.0953 19.5369 23.3618 19.6981 23.5757C19.8623 23.7865 20.0808 23.9461 20.3536 24.0546C20.6295 24.16 20.941 24.2127 21.2881 24.2127C21.629 24.2127 21.925 24.1631 22.1761 24.0639C22.4303 23.9647 22.6271 23.8268 22.7666 23.6501C22.906 23.4734 22.9758 23.2704 22.9758 23.041C22.9758 22.8272 22.9122 22.6474 22.7852 22.5017C22.6612 22.3561 22.4783 22.2321 22.2366 22.1298C21.9979 22.0275 21.705 21.9345 21.3578 21.8508L20.3211 21.5905C19.5183 21.3952 18.8844 21.0899 18.4195 20.6746C17.9546 20.2592 17.7237 19.6998 17.7268 18.9962C17.7237 18.4197 17.8771 17.916 18.187 17.4852C18.5001 17.0543 18.9294 16.7181 19.4749 16.4763C20.0204 16.2345 20.6403 16.1136 21.3346 16.1136C22.0413 16.1136 22.6581 16.2345 23.185 16.4763C23.715 16.7181 24.1273 17.0543 24.4217 17.4852C24.7162 17.916 24.868 18.415 24.8773 18.9822H22.9479Z" fill="white"/>
<path d="M9.71652 25.7655H7.55927L10.8463 16.2438H13.4406L16.723 25.7655H14.5657L12.1806 18.4197H12.1062L9.71652 25.7655ZM9.58169 22.0229H14.6773V23.5943H9.58169V22.0229Z" fill="white"/>
<path d="M0 17.9036V16.2438H7.82006V17.9036H4.90497V25.7655H2.91509V17.9036H0Z" fill="white"/>
<path d="M60.6181 9.65188H58.4608L61.7478 0.130188H64.3421L67.6245 9.65188H65.4673L63.0822 2.30604H63.0078L60.6181 9.65188ZM60.4832 5.90922H65.5788V7.48067H60.4832V5.90922Z" fill="white"/>
<path d="M50.2541 9.65188V0.130188H54.0107C54.7298 0.130188 55.3435 0.258818 55.8518 0.516077C56.3632 0.770236 56.7522 1.13133 57.0188 1.59935C57.2884 2.06428 57.4233 2.61134 57.4233 3.24054C57.4233 3.87284 57.2869 4.41681 57.0141 4.87243C56.7414 5.32496 56.3462 5.67211 55.8286 5.91387C55.314 6.15563 54.691 6.27651 53.9596 6.27651H51.4443V4.65857H53.6341C54.0184 4.65857 54.3377 4.60588 54.5919 4.50049C54.846 4.39511 55.0351 4.23704 55.1591 4.02627C55.2861 3.8155 55.3497 3.55359 55.3497 3.24054C55.3497 2.92439 55.2861 2.65784 55.1591 2.44087C55.0351 2.22391 54.8445 2.05963 54.5872 1.94805C54.333 1.83337 54.0122 1.77603 53.6248 1.77603H52.2672V9.65188H50.2541ZM55.3962 5.31876L57.7626 9.65188H55.5403L53.225 5.31876H55.3962Z" fill="white"/>
<path d="M41.9707 9.65188H39.8134L43.1004 0.130188H45.6947L48.9771 9.65188H46.8199L44.4348 2.30604H44.3604L41.9707 9.65188ZM41.8358 5.90922H46.9314V7.48067H41.8358V5.90922Z" fill="white"/>
<path d="M32.8214 9.65188V0.130188H36.578C37.3001 0.130188 37.9154 0.268116 38.4237 0.543972C38.932 0.816729 39.3195 1.19642 39.586 1.68304C39.8557 2.16656 39.9905 2.72448 39.9905 3.35678C39.9905 3.98907 39.8541 4.54699 39.5814 5.03051C39.3086 5.51403 38.9134 5.89062 38.3958 6.16028C37.8813 6.42994 37.2583 6.56477 36.5268 6.56477H34.1324V4.95147H36.2014C36.5888 4.95147 36.9081 4.88483 37.1591 4.75155C37.4133 4.61518 37.6023 4.42766 37.7263 4.18899C37.8534 3.94723 37.9169 3.66983 37.9169 3.35678C37.9169 3.04063 37.8534 2.76477 37.7263 2.52921C37.6023 2.29054 37.4133 2.10612 37.1591 1.97594C36.905 1.84267 36.5826 1.77603 36.1921 1.77603H34.8345V9.65188H32.8214Z" fill="white"/>
<path d="M20.7104 0.130188H23.1932L25.8153 6.52757H25.9269L28.5491 0.130188H31.0318V9.65188H29.0791V3.45441H29.0001L26.536 9.60538H25.2063L22.7422 3.43116H22.6631V9.65188H20.7104V0.130188Z" fill="white"/>
<path d="M19.0883 4.89102C19.0883 5.92936 18.8915 6.81272 18.4978 7.5411C18.1073 8.26949 17.5742 8.82585 16.8985 9.21019C16.2259 9.59143 15.4696 9.78205 14.6297 9.78205C13.7835 9.78205 13.0241 9.58988 12.3515 9.20554C11.6789 8.8212 11.1474 8.26484 10.7568 7.53645C10.3663 6.80807 10.171 5.92626 10.171 4.89102C10.171 3.85269 10.3663 2.96933 10.7568 2.24094C11.1474 1.51256 11.6789 0.957748 12.3515 0.576509C13.0241 0.19217 13.7835 0 14.6297 0C15.4696 0 16.2259 0.19217 16.8985 0.576509C17.5742 0.957748 18.1073 1.51256 18.4978 2.24094C18.8915 2.96933 19.0883 3.85269 19.0883 4.89102ZM17.0473 4.89102C17.0473 4.21843 16.9465 3.65122 16.7451 3.18939C16.5467 2.72757 16.2662 2.37732 15.9036 2.13866C15.5409 1.9 15.1163 1.78067 14.6297 1.78067C14.143 1.78067 13.7184 1.9 13.3558 2.13866C12.9931 2.37732 12.7111 2.72757 12.5096 3.18939C12.3112 3.65122 12.212 4.21843 12.212 4.89102C12.212 5.56362 12.3112 6.13083 12.5096 6.59265C12.7111 7.05448 12.9931 7.40472 13.3558 7.64339C13.7184 7.88205 14.143 8.00138 14.6297 8.00138C15.1163 8.00138 15.5409 7.88205 15.9036 7.64339C16.2662 7.40472 16.5467 7.05448 16.7451 6.59265C16.9465 6.13083 17.0473 5.56362 17.0473 4.89102Z" fill="white"/>
<path d="M8.76384 3.4637H6.72746C6.69027 3.20024 6.61433 2.96623 6.49965 2.76166C6.38497 2.55399 6.23774 2.37732 6.05797 2.23165C5.8782 2.08597 5.67053 1.97439 5.43497 1.8969C5.20251 1.81941 4.9499 1.78067 4.67714 1.78067C4.18432 1.78067 3.75504 1.9031 3.38929 2.14796C3.02355 2.38972 2.73995 2.74306 2.53848 3.20799C2.33701 3.66982 2.23628 4.23083 2.23628 4.89102C2.23628 5.56981 2.33701 6.14012 2.53848 6.60195C2.74305 7.06378 3.0282 7.41247 3.39394 7.64803C3.75969 7.8836 4.18277 8.00138 4.66319 8.00138C4.93285 8.00138 5.18236 7.96573 5.41172 7.89445C5.64419 7.82316 5.8503 7.71932 6.03007 7.58295C6.20985 7.44347 6.35862 7.27454 6.4764 7.07618C6.59728 6.87781 6.68097 6.65154 6.72746 6.39738L8.76384 6.40668C8.71115 6.84371 8.57942 7.26525 8.36865 7.67128C8.16099 8.07422 7.88048 8.43531 7.52714 8.75456C7.17689 9.07071 6.75846 9.32177 6.27184 9.50774C5.78831 9.69061 5.24125 9.78205 4.63065 9.78205C3.78138 9.78205 3.022 9.58988 2.35251 9.20554C1.68611 8.8212 1.1592 8.26484 0.77176 7.53645C0.387421 6.80807 0.195251 5.92626 0.195251 4.89102C0.195251 3.85269 0.39052 2.96933 0.781059 2.24094C1.1716 1.51256 1.70161 0.957748 2.37111 0.576509C3.0406 0.19217 3.79378 0 4.63065 0C5.18236 0 5.69378 0.0774878 6.1649 0.232463C6.63913 0.387439 7.05911 0.613702 7.42485 0.911255C7.79059 1.20571 8.08815 1.5668 8.31751 1.99453C8.54997 2.42227 8.69875 2.91199 8.76384 3.4637Z" fill="white"/>
</svg>
